<?xml version="1.0" encoding="utf-8"?>
<!-- Generator: Adobe Illustrator 22.0.0, SVG Export Plug-In . SVG Version: 6.00 Build 0)  -->
<svg version="1.1" id="Layer_1" xmlns="http://www.w3.org/2000/svg" xmlns:xlink="http://www.w3.org/1999/xlink" x="0px" y="0px"
	 viewBox="0 0 18 18" style="enable-background:new 0 0 18 18;" xml:space="preserve">
<style type="text/css">
	.st0{fill:#FFFFFF;}
</style>
<path class="st0" d="M15,0H3C1.4,0,0,1.3,0,3v12c0,1.7,1.4,3,3,3h12c1.7,0,3-1.3,3-3V3C18,1.3,16.7,0,15,0z M14.7,6
	c0,0.1,0,0.3,0,0.4c0,4-3,8.6-8.4,8.6c-1.7,0-3.2-0.5-4.5-1.4c0.2,0,0.5,0,0.7,0c1.4,0,2.7-0.5,3.7-1.3c-1.3,0-2.4-0.9-2.8-2.1
	c0.2,0,0.4,0.1,0.6,0.1c0.3,0,0.5,0,0.8-0.1c-1.3-0.3-2.4-1.5-2.4-3c0,0,0,0,0,0c0.4,0.2,0.9,0.4,1.3,0.4C2.9,7.1,2.4,6.1,2.4,5.1
	c0-0.5,0.1-1.1,0.4-1.5c1.5,1.8,3.6,3,6.1,3.1C8.8,6.5,8.8,6.3,8.8,6.1c0-1.7,1.3-3,3-3c0.9,0,1.6,0.4,2.2,0.9
	c0.7-0.1,1.3-0.4,1.9-0.7c-0.2,0.7-0.7,1.3-1.3,1.7c0.6-0.1,1.2-0.2,1.7-0.5C15.8,5.1,15.3,5.6,14.7,6z"/>
</svg>
