<?xml version="1.0" encoding="utf-8"?>
<!-- Generator: Adobe Illustrator 22.0.0, SVG Export Plug-In . SVG Version: 6.00 Build 0)  -->
<svg version="1.1" id="Layer_1" xmlns="http://www.w3.org/2000/svg" xmlns:xlink="http://www.w3.org/1999/xlink" x="0px" y="0px"
	 viewBox="0 0 14.9 18" style="enable-background:new 0 0 14.9 18;" xml:space="preserve">
<style type="text/css">
	.st0{opacity:0.3;fill-rule:evenodd;clip-rule:evenodd;fill:#FFFFFF;}
	.st1{fill-rule:evenodd;clip-rule:evenodd;fill:#FFFFFF;}
</style>
<g>
	<g>
		<path class="st0" d="M5.9,0.1h-1L4.2,2.8L3.5,0.1H2.4C2.6,0.7,2.8,1.4,3,2c0.3,0.9,0.5,1.6,0.6,2.1v2.7h1V4.1L5.9,0.1z M8.6,5.2
			V3.5c0-0.5-0.1-0.9-0.3-1.2C8,1.9,7.7,1.8,7.2,1.8c-0.5,0-0.8,0.2-1.1,0.5C6,2.5,5.9,2.9,5.9,3.5v1.8c0,0.5,0.1,0.9,0.3,1.2
			c0.2,0.3,0.6,0.5,1.1,0.5c0.5,0,0.8-0.2,1.1-0.5C8.5,6.1,8.6,5.8,8.6,5.2z M7.7,5.4c0,0.5-0.1,0.7-0.4,0.7c-0.3,0-0.4-0.2-0.4-0.7
			V3.3c0-0.5,0.1-0.7,0.4-0.7c0.3,0,0.4,0.2,0.4,0.7V5.4z M11.9,6.8v-5H11v3.8c-0.2,0.3-0.4,0.4-0.6,0.4c-0.1,0-0.2-0.1-0.2-0.2
			c0,0,0-0.2,0-0.4V1.8H9.3v4c0,0.4,0,0.6,0.1,0.8C9.5,6.8,9.7,6.9,10,6.9c0.3,0,0.7-0.2,1-0.6v0.6H11.9z"/>
		<path class="st1" d="M5.9,0h-1L4.2,2.6L3.5,0H2.4C2.6,0.6,2.8,1.2,3,1.9C3.4,2.8,3.6,3.5,3.7,4v2.7h1V4L5.9,0z M8.6,5.1V3.4
			c0-0.5-0.1-0.9-0.3-1.2C8,1.8,7.7,1.7,7.2,1.7c-0.5,0-0.8,0.2-1.1,0.5C6,2.4,5.9,2.8,5.9,3.4v1.8C5.9,5.6,6,6,6.2,6.3
			c0.2,0.3,0.6,0.5,1.1,0.5c0.4,0,0.8-0.2,1.1-0.5C8.5,6,8.6,5.6,8.6,5.1z M7.7,5.3C7.7,5.7,7.5,6,7.2,6C6.9,6,6.8,5.7,6.8,5.3V3.2
			c0-0.5,0.1-0.7,0.4-0.7c0.3,0,0.4,0.2,0.4,0.7V5.3z M11.9,6.7v-5H11v3.8C10.8,5.8,10.6,6,10.4,6c-0.1,0-0.2-0.1-0.2-0.2
			c0,0,0-0.1,0-0.4V1.7H9.3v4c0,0.4,0,0.6,0.1,0.8C9.5,6.7,9.7,6.8,10,6.8c0.3,0,0.7-0.2,1-0.6v0.5H11.9z"/>
	</g>
	<g>
		<path class="st1" d="M14.6,9.3c-0.2-0.8-0.8-1.4-1.6-1.5c-1.9-0.2-3.7-0.2-5.6-0.2c-1.9,0-3.7,0-5.6,0.2C1.1,7.9,0.4,8.5,0.3,9.3
			C0,10.4,0,11.7,0,12.8c0,1.2,0,2.4,0.3,3.5c0.2,0.8,0.8,1.4,1.6,1.5C3.7,18,5.6,18,7.4,18c1.9,0,3.7,0,5.6-0.2
			c0.8-0.1,1.4-0.7,1.6-1.5c0.2-1.1,0.3-2.4,0.3-3.5C14.9,11.7,14.9,10.4,14.6,9.3z M4.2,10.3H3.2V16h-1v-5.7H1.1V9.4h3.1V10.3z
			 M7,16H6.1v-0.5c-0.4,0.4-0.7,0.6-1,0.6c-0.3,0-0.5-0.1-0.6-0.4c0-0.2-0.1-0.4-0.1-0.7v-3.9h0.9v3.7c0,0.2,0,0.3,0,0.3
			c0,0.2,0.1,0.2,0.2,0.2c0.2,0,0.4-0.1,0.6-0.4v-3.8H7V16z M10.4,14.5c0,0.5,0,0.8-0.1,1c-0.1,0.4-0.4,0.5-0.7,0.5
			c-0.3,0-0.6-0.2-0.9-0.5V16H7.7V9.4h0.9v2.2C8.9,11.2,9.2,11,9.6,11c0.4,0,0.6,0.2,0.7,0.6c0.1,0.2,0.1,0.5,0.1,1V14.5z
			 M13.8,13.7H12v0.9c0,0.5,0.2,0.7,0.5,0.7c0.2,0,0.4-0.1,0.4-0.4c0-0.1,0-0.2,0-0.6h0.9v0.1c0,0.3,0,0.5,0,0.6
			c0,0.2-0.1,0.4-0.2,0.5c-0.3,0.4-0.6,0.5-1.1,0.5c-0.5,0-0.8-0.2-1.1-0.5c-0.2-0.3-0.3-0.6-0.3-1.2v-1.7c0-0.5,0.1-0.9,0.3-1.2
			c0.3-0.3,0.6-0.5,1.1-0.5c0.5,0,0.8,0.2,1.1,0.5c0.2,0.2,0.3,0.6,0.3,1.2V13.7z"/>
		<path class="st1" d="M9.1,11.8c-0.1,0-0.3,0.1-0.4,0.2v3c0.2,0.2,0.3,0.2,0.4,0.2c0.3,0,0.4-0.2,0.4-0.7v-2.1
			C9.5,12.1,9.3,11.8,9.1,11.8z"/>
		<path class="st1" d="M12.4,11.8c-0.3,0-0.4,0.2-0.4,0.7V13h0.9v-0.5C12.9,12.1,12.7,11.8,12.4,11.8z"/>
	</g>
</g>
</svg>
