<?xml version="1.0" encoding="utf-8"?>
<!-- Generator: Adobe Illustrator 22.0.0, SVG Export Plug-In . SVG Version: 6.00 Build 0)  -->
<svg version="1.1" id="Layer_1" xmlns="http://www.w3.org/2000/svg" xmlns:xlink="http://www.w3.org/1999/xlink" x="0px" y="0px"
	 viewBox="0 0 770.2 1902.2" style="enable-background:new 0 0 770.2 1902.2;" xml:space="preserve">
<style type="text/css">
	.st0{fill:#582200;stroke:#582200;stroke-width:0.5;}
	.st1{fill:#FFAE6E;stroke:#FFAE6E;stroke-width:0.5;}
	.st2{fill:#562100;stroke:#562100;stroke-width:0.5;}
	.st3{fill:#2E2F2F;stroke:#2E2F2F;stroke-width:0.5;}
	.st4{fill:#172627;stroke:#172627;stroke-width:0.5;}
	.st5{fill:#172527;stroke:#172527;stroke-width:0.5;}
	.st6{fill:#FFFFFF;stroke:#FFFFFF;stroke-width:0.5;}
	.st7{fill:#E18D54;stroke:#E18D54;stroke-width:0.5;}
	.st8{fill:#FF5353;stroke:#FF5353;stroke-width:0.5;}
	.st9{fill:#00DDD5;stroke:#00DDD5;stroke-width:0.5;}
	.st10{fill:#F2F2F2;stroke:#C8C8C8;stroke-linecap:round;stroke-linejoin:round;}
	.st11{fill:#003342;stroke:#003342;stroke-width:0.5;}
	.st12{fill:#00C2B9;stroke:#00C2B9;stroke-width:0.5;}
	.st13{fill:#DD2C08;stroke:#DD2C08;stroke-width:0.5;}
	.st14{fill:#394F50;stroke:#394F50;stroke-width:0.5;}
	.st15{fill:#182E30;stroke:#182E30;stroke-width:0.5;}
	.st16{opacity:0.95;fill:#939B9B;stroke:#939B9B;stroke-width:0.5;enable-background:new    ;}
	.st17{opacity:0.51;fill:#101C1C;stroke:#101C1C;stroke-width:0.5;enable-background:new    ;}
	.st18{fill:#331100;stroke:#331100;stroke-width:0.5;}
</style>
<path class="st0" d="M414,1.4c17-1.5,34-1.2,51.1-0.7c5.7,0.6,11.5,0.9,17.1,1.9c19.9,3.2,39.8,7.5,58.3,15.8
	c15.5,6.1,29.9,14.8,43,25.2c7.5,6.2,15.8,11.3,24.5,15.5c7.5,3.4,15.6,6.2,24,5.7c5.4,0.3,11.9-0.8,15.2-5.6
	c3.3-4.9-1.5-9.9-0.9-15c4.9-0.2,8.5,3.8,11.8,6.8c14.5,15.3,24.2,34.7,30.1,54.8c2.3,8.5,1.5,17.5,1.6,26.2
	c0.1,14.7-5.5,28.4-9.6,42.3c-1.5,5.6-4.2,10.7-5.5,16.3c-1.4,5.9-2.9,11.9-3.9,17.9c-0.4,5.1-0.8,10.2-1.1,15.3
	c-1.4,15.8-2.3,31.6-4.2,47.3c-0.8,10.4-2.8,20.7-4,31c-1.1,5.3-1.8,10.7-4.3,15.5c-0.7-0.1-2-0.4-2.7-0.6
	c-1.5-4.9-3.8-9.5-4.6-14.5c-1.4-7.9-0.2-15.9-0.6-23.8c2-22.5,4.7-45.1,2.5-67.7c-0.5-9.3-2.1-18.5-3.8-27.7
	c-2-11-5.5-21.9-12.1-31.1c-3.7-5.1-8.7-9.4-14.8-11.1c-7.5-2.1-15.3-2.9-23.1-3.5c-22.8-0.8-46-0.3-68.2,5.4
	c-10.1,2.4-18.1,10.4-28.7,11.1c-8.8,0.8-16.8-3.7-24.1-8c-9.9-6-21.7-6.6-32.8-8.6c-20.3-2.4-40.9-3.1-61.1-0.2
	c-7.5,1.3-15.6,3-21.3,8.5c-6,7-8,16.3-9.6,25.1c-2.2,15.9-2.8,32-2.7,48.1c0.1,7-0.5,14.1,0.7,21c0.2,3.3-0.3,6.6-0.5,10
	c-0.4,16.9,0.5,33.9-0.9,50.7c-0.8,4.1-2.7,7.9-5.7,10.9c-3-2-4.2-5.5-5-8.9c-2.3-12.1-3.9-24.4-3.8-36.8
	c-1.3-14.3-0.5-28.6-1.1-42.9c-1.2-14.6,0.2-29.4-0.8-44c-0.9-7.6-3.3-15-6.6-21.9c-3.6-8-10.4-14.3-13.3-22.7
	c-3.1-10-5-20.4-9.1-30c-2.4-4.2-5.6-9.9-11.3-9.3c-6.5-0.7-11.3,4.3-16.5,7.3c-1.6,0.7-3.8,2.8-5,0.4c1.3-4.7,4.4-8.5,7.2-12.3
	c6.5-7.8,13.8-15,22.3-20.5c6.2-4.1,14.3-5,19.4-10.7c0-0.9,0-1.8,0-2.7c-4.3-0.6-8.7-0.6-13,0.1C293,60.1,280.6,67,266.8,69
	c-1.7,0.3-4.3,0.2-4.4-2.1c2.8-4.6,7.7-7.3,12-10.4c17-10.3,35-19.4,54.3-24.5c32.5-8.3,66.6-5.2,99.3-12.4c3.3-0.8,6.4-2.1,9.5-3.3
	c0-0.5,0.1-1.6,0.1-2.1c-6-3.5-13.1-2.6-19.7-3c-8-0.8-16.2-0.5-23.8-3.5c-1.3-0.2-2-1.3-2.1-2.5C398.9,2.1,406.6,1.7,414,1.4
	L414,1.4z"/>
<path class="st1" d="M383,137.3c20.3-2.8,40.9-2.2,61.1,0.2c11.1,2,22.9,2.6,32.8,8.6c7.3,4.3,15.3,8.8,24.1,8
	c10.6-0.7,18.6-8.7,28.7-11.1c22.2-5.8,45.4-6.3,68.2-5.4c7.8,0.6,15.6,1.4,23.1,3.5c6.1,1.7,11.1,6,14.8,11.1
	c6.5,9.2,10.1,20.1,12.1,31.1c1.6,9.2,3.2,18.4,3.8,27.7c2.2,22.6-0.5,45.2-2.5,67.7c-1,4-1,8.2-0.9,12.4c0.2,5.6-2.5,10.7-4.5,15.8
	c-8.2,19.1-18.7,37.1-31.2,53.7c-7.9,10-16.1,20.1-26.7,27.3c-4.7,3.1-9.3,6.5-14.7,8.2c-3-2.5-1.3-6.3-0.5-9.4
	c3.5-11.6,6.3-23.5,6.6-35.7c0-6.7-1.2-14.1-6.3-18.9c-5.8-5.8-14.8-5.9-22.3-4.6c-11.6,1.7-21.5,8.8-32.9,11.2c1.4-3.1,5-6,3.5-9.8
	c-5.5,2.8-9.9,8-16.2,9.1c-7.4,1-14.9-1.2-21.4-4.7c-4.1-2.1-6-6.9-5.6-11.3c0.5-6.2,2.5-12.1,3.9-18.2c1.3-2.7,2.9-5.3,3.5-8.3
	c1.1-10.6,0.3-21.4,1.3-32c9.8,0,19.7-0.2,29.5,0.2c0.4,9.1,0.1,18.2,0.2,27.3c-0.6,10.4,9.2,20.1,19.6,19.6c28.7,0,57.4,0,86.1,0
	c9.1,0.5,17.7-7,19-15.9c0.9-5.9,0.3-11.8,0.5-17.7c-0.2-8.2,0.7-16.4-1-24.5c3-0.4,7,0.6,9.2-2c1.4-3.5,0.8-7.5-0.2-11
	c-9.5-0.5-19,0-28.5-0.8c-15.7,0.9-31.3,0.5-47,0.6c-13,0-26,0.1-39,0c-5.6-0.2-11.1,2.8-14.5,7.2c-1.8,2.4-2.6,5.4-4.6,7.7
	c-9.9,0.5-19.9,0.2-29.9,0.1c-2.8-7.3-8.6-14.6-17-14.9c-24.7-0.1-49.3-0.1-74-0.1c-6.3-0.1-12.7-1-19-0.3c-7.9,0.9-15.9-0.4-23.8,1
	c-1.2-6.9-0.5-14-0.7-21c-0.1-16.1,0.5-32.2,2.7-48.1c1.5-8.8,3.6-18.1,9.6-25.1C367.4,140.3,375.5,138.6,383,137.3 M404.3,230.4
	c-1.8,0.7-3,2.2-4.1,3.7c2.3,2.4,5.9,1.5,8.8,1.3c6.2-1.3,12.6-1.1,19-1c9.8-0.1,19.3,2.4,29,2.8c3.9,0,8.4-2.8,7.7-7.2
	c0.8-4.4-3.7-6.9-7.2-8.2c-7.4-0.6-15-0.4-22.4-0.1C424.5,223.1,414,225.8,404.3,230.4 M539.5,221.8c-3.5,1.2-7.6,4-7.2,8.2
	c-0.4,3.8,3.3,6.5,6.7,7.1c10-0.2,19.9-2.9,30-2.8c6.7-0.1,13.4-0.2,20,1.1c2.5,0,6.1,1.1,7.6-1.4c-0.7-2.1-2.8-3.2-4.5-4.1
	c-9.2-4.4-19.3-6.6-29.3-8.2C555,221.3,547.2,221.2,539.5,221.8L539.5,221.8z"/>
<path class="st2" d="M404.3,230.4c9.7-4.5,20.2-7.2,30.8-8.7c7.5-0.3,15-0.5,22.4,0.1c3.5,1.3,8,3.8,7.2,8.2
	c0.7,4.4-3.8,7.2-7.7,7.2c-9.7-0.5-19.3-3-29-2.8c-6.3-0.1-12.7-0.3-19,1c-3,0.2-6.5,1.1-8.8-1.3
	C401.3,232.6,402.5,231.1,404.3,230.4L404.3,230.4z"/>
<path class="st2" d="M539.5,221.8c7.7-0.6,15.5-0.5,23.2,0c10,1.6,20.1,3.8,29.3,8.2c1.8,0.9,3.9,2,4.5,4.1
	c-1.6,2.5-5.2,1.4-7.6,1.4c-6.6-1.3-13.3-1.2-20-1.1c-10.1-0.1-19.9,2.6-30,2.8c-3.4-0.6-7.1-3.3-6.7-7.1
	C531.9,225.8,536,223,539.5,221.8L539.5,221.8z"/>
<path class="st1" d="M333.2,223.1c0.6,14.3-0.2,28.6,1.1,42.9c-0.1,12.4,1.5,24.7,3.8,36.8c-13.4-5.9-21.7-19.3-25.8-32.9
	c-2.4-7.4-2.1-15.2-1.8-22.9c1.2-7.8,4.6-15.8,11.4-20.2C325.2,224.4,329.3,223.9,333.2,223.1z"/>
<path class="st1" d="M665.4,271.1c1.9-15.7,2.8-31.6,4.2-47.3c7,1.5,12.5,7,15.3,13.4c3.9,7.7,2.8,16.5,2.7,24.8
	c-1.3,10.9-6.1,21.3-13,29.8c-3.5,4.5-8,8-13.2,10.4C662.6,291.8,664.6,281.5,665.4,271.1L665.4,271.1z"/>
<path class="st3" d="M350.2,240c7.9-1.5,15.9-0.1,23.8-1c6.3-0.7,12.7,0.1,19,0.3c24.7,0,49.3-0.1,74,0.1c8.4,0.4,14.3,7.6,17,14.9
	c10,0.1,19.9,0.4,29.9-0.1c2-2.3,2.8-5.3,4.6-7.7c3.4-4.4,8.8-7.4,14.5-7.2c13,0.1,26-0.1,39,0c15.7-0.1,31.3,0.3,47-0.6
	c9.5,0.9,19,0.4,28.5,0.8c0.9,3.5,1.6,7.5,0.2,11c-2.2,2.6-6.2,1.6-9.2,2c1.7,8,0.8,16.3,1,24.5c-0.1,5.9,0.4,11.8-0.5,17.7
	c-1.2,9-9.9,16.4-19,15.9c-28.7,0-57.4,0-86.1,0c-10.4,0.6-20.2-9.2-19.6-19.6c-0.1-9.1,0.3-18.2-0.2-27.3
	c-9.8-0.4-19.7-0.1-29.5-0.2c-1.1,10.6-0.2,21.4-1.3,32c-0.6,3-2.2,5.6-3.5,8.3c-2.2,1.8-4.4,3.4-6.8,4.9
	c-5.4,2.5-11.4,1.8-17.1,1.8c-26,0-52,0-78.1,0c-6.6,0.3-12.8-3.8-16.3-9.3c-3.7-6.1-3-13.5-3-20.4c0.2-9.5-0.7-19.1,1-28.5
	c-3.5,0-7.2,0-9.9-2.5C349.9,246.7,350.4,243.3,350.2,240 M368.3,258c0,11.4,0,22.7,0,34c-0.1,5.5,5.4,9.8,10.7,9.4
	c28.4,0,56.7,0,85.1,0c5.2,0.3,10.7-3.9,10.6-9.4c0-11,0-22,0-33.1c0.6-5.3-4.2-10.8-9.6-10.6c-6.8-0.1-13.6,0-20.4-0.1
	c-0.5,0.5-1,1-1.5,1.6c-1.9-0.4-3.8-0.7-5.8-0.8c-3.7-1.7-8.5-1.6-12,0.5c0.1-0.3,0.4-0.9,0.6-1.2c-16,0-32,0-48.1,0
	C372.8,248.1,367.9,252.8,368.3,258 M528.6,249.6c-3.2,2-5.2,5.6-5,9.4c0,10.7,0,21.4,0,32.1c-0.3,5.6,4.7,10.6,10.3,10.3
	c28.7,0,57.4,0.1,86.1,0c5.6,0.3,10.3-4.8,10.2-10.3c0.1-10.7,0-21.4,0-32.1c0.3-5.5-4.5-11.1-10.2-10.6c-16.2,0-32.3,0.1-48.5-0.1
	c-0.5,0.5-0.9,1.1-1.4,1.6c-1.9-0.5-3.8-0.7-5.8-0.8c-3.8-1.8-8.4-1.4-12.1,0.4c0.2-0.3,0.5-0.8,0.7-1.1c-5.7-0.2-11.4,0-17-0.1
	C533.5,248.5,530.7,248,528.6,249.6z"/>
<path class="st1" d="M368.3,258c-0.4-5.2,4.5-9.9,9.7-9.6c16,0,32,0,48.1,0c-0.1,0.3-0.4,0.9-0.6,1.2c-2.2,3.5-4.8,7-5,11.3
	c-0.3,5.8-0.7,12,2.2,17.3c2.3,4.4,6.1,9,11.4,9.4c5.9,0.7,11.2-3.8,13.5-8.9c2.6-6,3.6-12.8,2-19.1c-0.9-4.1-2.9-7.7-4.9-11.3
	c6.8,0.1,13.6,0,20.4,0.1c5.4-0.2,10.2,5.2,9.6,10.6c-0.1,11,0,22,0,33.1c0.2,5.4-5.4,9.7-10.6,9.4c-28.3,0-56.7,0-85,0
	c-5.3,0.4-10.8-3.9-10.7-9.4C368.2,280.7,368.2,269.3,368.3,258L368.3,258z"/>
<path class="st4" d="M425.4,249.7c3.5-2.2,8.3-2.2,12-0.5c-1.4,1.7-3.1,3.2-3.8,5.3c-0.6,3.9-0.8,8.6,2.4,11.5
	c1.2,1.7,3.5,1.8,5.4,1.4c3.6-1.9,5.3-6.4,4.8-10.3c-0.5-2.6-1.9-4.8-3-7.1c0.5-0.5,1-1.1,1.5-1.6c2,3.6,4.1,7.3,4.9,11.3
	c1.6,6.4,0.6,13.1-2,19.1c-2.3,5.2-7.6,9.6-13.5,8.9c-5.3-0.4-9.1-5-11.4-9.4c-2.9-5.3-2.5-11.5-2.2-17.3
	C420.6,256.7,423.2,253.1,425.4,249.7L425.4,249.7z"/>
<path class="st1" d="M528.6,249.6c2.1-1.6,4.9-1.1,7.4-1.2c5.7,0.1,11.3-0.1,17,0.1c-0.2,0.3-0.5,0.8-0.7,1.1
	c-4.4,6.4-6.8,14.5-5,22.1c1.1,5.3,3.4,10.9,8,14c4.7,3.4,11.8,2.6,15.4-2c6.5-6.4,6.7-16.2,5.5-24.7c-0.7-3.9-2.8-7.2-4.6-10.7
	c16.2,0.1,32.3,0,48.5,0.1c5.7-0.6,10.5,5.1,10.2,10.6c0,10.7,0.1,21.4,0,32.1c0.1,5.5-4.6,10.6-10.2,10.3c-28.7,0.1-57.4,0-86.1,0
	c-5.6,0.3-10.7-4.7-10.3-10.3c0-10.7,0-21.4,0-32.1C523.4,255.2,525.4,251.6,528.6,249.6L528.6,249.6z"/>
<path class="st5" d="M552.3,249.5c3.7-1.8,8.3-2.2,12.1-0.4c-1.7,2.1-4.1,4.1-4,7c-0.2,3.2-0.4,7,2.1,9.4c1.3,1.9,3.8,2.4,5.9,1.8
	c3-1.7,4.5-5.1,4.9-8.3c0.2-3.3-1.8-6.2-3.1-9.1c0.5-0.5,0.9-1.1,1.4-1.6c1.8,3.5,3.9,6.8,4.6,10.7c1.2,8.5,1,18.3-5.5,24.7
	c-3.6,4.6-10.8,5.3-15.4,2c-4.6-3.2-6.9-8.7-8-14C545.5,264,547.9,255.9,552.3,249.5L552.3,249.5z"/>
<path class="st6" d="M437.4,249.1c1.9,0.1,3.9,0.4,5.8,0.8c1.2,2.3,2.5,4.5,3,7.1c0.5,3.9-1.1,8.4-4.8,10.3
	c-1.9,0.5-4.2,0.3-5.4-1.4c-3.2-3-3-7.6-2.4-11.5C434.3,252.3,436,250.8,437.4,249.1z"/>
<path class="st6" d="M564.4,249.1c1.9,0.1,3.9,0.3,5.8,0.8c1.4,2.9,3.3,5.7,3.1,9.1c-0.4,3.3-2,6.7-4.9,8.3c-2.2,0.6-4.6,0-5.9-1.8
	c-2.5-2.4-2.3-6.2-2.1-9.4C560.3,253.2,562.7,251.2,564.4,249.1z"/>
<path class="st1" d="M348.8,300.7c1.4-16.9,0.5-33.8,0.9-50.7c2.7,2.5,6.4,2.6,9.9,2.5c-1.7,9.4-0.8,19-1,28.5
	c0,6.8-0.7,14.2,3,20.4c3.5,5.5,9.6,9.6,16.3,9.3c26,0,52,0,78.1,0c5.7-0.1,11.8,0.7,17.1-1.8c0.3,0.2,1,0.5,1.4,0.6
	c-0.7,8.9-3.8,17.7-1.9,26.7c-10.6-2.1-21.3-5.5-32.2-3.7c-8.6,1-16.9,6.1-20.8,14c-4.4,9.2-4.2,19.6-5.4,29.5
	c-0.6,3.1-1.1,7.2-4.6,8.4c-2.9,0.5-5.6-1.5-7.9-3c-10.3-7.9-19.4-17.3-27.5-27.4c-10.1-12.6-18.2-27-22.3-42.6
	C350.9,307.8,349.9,304.2,348.8,300.7L348.8,300.7z"/>
<path class="st7" d="M648.3,291c-0.1-4.1-0.1-8.3,0.9-12.4c0.4,7.9-0.8,16,0.6,23.8c0.9,5,3.2,9.6,4.6,14.5
	c-1.4,8.4-3.8,16.7-6.3,24.8c-3.1,9.5-6.9,19.2-13.3,27c-10.7,12.5-23.8,22.4-37.3,31.7c-17.7,12-36.5,22.5-56.1,31
	c-2.2,1-4.5,1.8-6.8,2.5c-0.9,1.8-1.4,3.7-1.8,5.7c-16.5,8.5-33.1,16.9-49.8,25.2c-6.3,3.1-12.4,6.7-19,9
	c-0.5-13.7,0.4-27.4-0.3-41.1c-17-6.7-33.3-15.2-49.1-24.5c-17.9-10.9-35.7-22.5-49.8-38.1c-6.4-6.7-9.8-15.4-13.1-23.9
	c-3.9-11.1-6.7-22.6-9-34.2l0.4-0.6c3-3,4.9-6.8,5.7-10.9c1.1,3.5,2.1,7.1,2.9,10.6c4,15.7,12.2,30.1,22.3,42.6
	c8.2,10.1,17.2,19.5,27.5,27.4c2.3,1.5,5,3.5,7.9,3c3.5-1.2,4-5.3,4.6-8.4c1.3-9.9,1.1-20.3,5.4-29.5c3.9-7.9,12.2-13,20.8-14
	c10.9-1.8,21.6,1.5,32.2,3.7c-1.9-9,1.2-17.8,1.9-26.7c-0.3-0.1-1-0.5-1.4-0.6c2.4-1.5,4.6-3.1,6.8-4.9c-1.4,6-3.4,12-3.9,18.2
	c-0.4,4.4,1.5,9.2,5.6,11.3c6.5,3.5,14,5.7,21.4,4.7c6.3-1.1,10.6-6.4,16.2-9.1c1.5,3.7-2.1,6.6-3.5,9.8
	c11.4-2.4,21.3-9.5,32.9-11.2c7.6-1.3,16.5-1.1,22.3,4.6c5.2,4.8,6.3,12.2,6.3,18.9c-0.3,12.1-3.1,24.1-6.6,35.7
	c-0.8,3.1-2.5,6.9,0.5,9.4c5.4-1.7,10-5,14.7-8.2c10.7-7.2,18.8-17.3,26.7-27.3c12.5-16.6,23-34.7,31.2-53.7
	C645.7,301.8,648.4,296.7,648.3,291 M556.3,337.4c-14.7,3.7-27.4,13-42.4,15.6c-9.1,1.4-18.4,2.6-27.6,1.5
	c-11.9-1.7-23-6.8-34.4-10.5c-5.3-1.6-11.5-3.4-16.7-0.7c-4,1.8-4.4,6.6-5.6,10.3c-2.9,11-6.8,22.6-3.2,33.9
	c2.7,8.7,10,14.9,17.5,19.4c8.4,5.3,18.8,4.6,28.2,6.7c5,1.3,9.5-1.3,13.5-4c5.8-3.7,13.2-5.7,19.9-3.4c5.5,1.8,8.5,8,14.5,8.7
	c5.2,0.4,9.9-2.4,14.3-4.7c6.9-4.2,13.7-8.8,18.6-15.4c6.3-8,9.7-17.7,12.7-27.3c1.8-6.1,3.8-12.2,4.3-18.6c0.2-3.3,0.1-7.1-2.2-9.7
	C564.7,336.3,560.1,336.7,556.3,337.4L556.3,337.4z"/>
<path class="st1" d="M556.3,337.4c3.8-0.7,8.4-1.1,11.4,1.8c2.2,2.7,2.3,6.4,2.2,9.7c-0.5,6.4-2.6,12.5-4.3,18.6
	c-3,9.6-6.3,19.4-12.7,27.3c-4.8,6.6-11.7,11.3-18.6,15.4c-4.4,2.3-9.1,5.1-14.3,4.7c-6-0.7-9-6.9-14.5-8.7
	c-6.7-2.3-14.1-0.4-19.9,3.4c-4,2.7-8.5,5.3-13.5,4c-9.4-2.1-19.8-1.4-28.2-6.7c-7.5-4.6-14.8-10.7-17.5-19.4
	c-3.6-11.3,0.3-23,3.2-33.9c1.2-3.7,1.6-8.5,5.6-10.3c5.2-2.7,11.4-0.9,16.7,0.7c11.4,3.6,22.4,8.8,34.4,10.5
	c9.2,1.1,18.5-0.1,27.6-1.5C529,350.4,541.7,341.1,556.3,337.4 M554.3,348.4c-8.5,1.7-13.9,9-21.4,12.5c-8.4,3.9-17.7,5.1-26.8,6.3
	c-12,1.4-24.1,2.3-36.1,1c-7.2-0.7-14.5-1.9-21-5.2c-4.6-2.4-8.5-6.9-14-7.2c-2.1-0.4-4.2,0.3-5.3,2.1c1.8,2.4,3.9,4.8,6.9,5.4
	c14,3.9,27.6,10.4,42.4,10.4c10.4-0.5,20.8-1,31.1-2.6c8.1-1.3,16.4-2.2,24.2-4.9c3.7-1.3,6.5-4.1,9.6-6.3c4.9-3.5,11.7-2,16.6-5.5
	c1.1-0.9,2.8-2.3,1.9-3.9C561.4,347.1,557,347.7,554.3,348.4 M466.9,386c0.3,2.9,3.1,4.4,5.4,5.7c5.7,3,11.5,6.1,17.9,7
	c5,0.7,10.2,0.7,15.2-0.4c5.2-1.3,9.9-3.8,14.6-6.4c2.2-1.3,4.6-2.5,5.9-4.8c-0.2-0.2-0.8-0.5-1-0.7c-6.3,0.8-11.9,4.2-18.2,5.1
	c-9.1,2.1-18.5,0.8-27.3-1.9C475.2,388.5,471.3,386,466.9,386z"/>
<path class="st7" d="M554.3,348.4c2.7-0.6,7-1.2,8,2.2c0.8,1.6-0.8,3-1.9,3.9c-4.9,3.5-11.7,2-16.6,5.5c-3.1,2.2-5.9,5-9.6,6.3
	c-7.8,2.7-16.1,3.6-24.2,4.9c-10.3,1.6-20.7,2.1-31.1,2.6c-14.8,0-28.4-6.5-42.4-10.4c-3-0.7-5.2-3-6.9-5.4c1.1-1.8,3.2-2.5,5.3-2.1
	c5.6,0.3,9.4,4.8,14,7.2c6.5,3.4,13.8,4.5,21,5.2c12,1.3,24.1,0.4,36.1-1c9.1-1.2,18.4-2.5,26.8-6.3
	C540.5,357.4,545.9,350,554.3,348.4z"/>
<path class="st7" d="M466.9,386c4.4,0.1,8.3,2.5,12.5,3.7c8.8,2.7,18.2,4,27.3,1.9c6.3-0.9,11.9-4.3,18.2-5.1c0.3,0.2,0.8,0.5,1,0.7
	c-1.3,2.3-3.7,3.5-5.9,4.8c-4.7,2.5-9.4,5.1-14.6,6.4c-5,1.1-10.2,1.1-15.2,0.4c-6.4-0.9-12.2-4-17.9-7
	C470,390.4,467.2,388.9,466.9,386L466.9,386z"/>
<path class="st8" d="M465.4,534.4c6.8-0.5,13.6-0.1,20.5-0.3c8.4,0.1,16.8,0.1,25.2,0c6.9,0.2,13.7-0.1,20.6,0.2
	c3,9.8,1.5,20.3-2.5,29.5c-3,6.9-7.9,12.9-13.5,17.8c-1.8,1.7-3.9,3.2-5.2,5.4c0.2,2.7,0.9,5.2,1.4,7.8c2.2,9.5,2.9,19.3,4.8,29
	c2.2,20.6,5,41.2,6.1,61.9c2,13.7,2.1,27.6,3.6,41.4c0.5,13,1.2,25.9,2,38.8c-0.1,12.8,1.1,25.6,1.1,38.4
	c-0.2,15.2,0.2,30.4-0.3,45.6c-0.8,8.8-0.4,17.7-1.5,26.5c-0.7,11.8-1.7,23.6-3.3,35.3c-1.8,12.5-4.5,24.8-8,36.9
	c-3.3,7.5-5.9,15.9-12.2,21.5c-3.8,3.3-9.6,1.9-12.7-1.6c-5.7-6-8-14.3-11.1-21.8c-1.8-6.7-3.3-13.4-4.9-20.1
	c-2.3-9.5-2.9-19.2-4.4-28.8c-3.2-37.3-4.3-74.8-2.9-112.2c1.4-44.6,4.5-89.1,9.1-133.5c0.8-9.2,2.6-18.2,2.4-27.5
	c0.8-2.2,1.5-4.4,1.8-6.7c1.4-10.4,2.8-20.9,5.6-31.1c-7.6-7-15.7-14.2-19.5-24.1C463.6,554,463.1,543.8,465.4,534.4L465.4,534.4z"
	/>
<path class="st1" d="M463.6,432.8c0.7,13.7-0.2,27.4,0.3,41.1c6.6-2.3,12.7-6,19-9c16.7-8.3,33.3-16.7,49.8-25.2
	c0.5-1.9,1-3.9,1.8-5.7c-0.6,10.3-0.3,20.6-0.2,31c-0.3,12,5,24.3,14.7,31.4c0.2,0.8,0.4,1.6,0.7,2.5
	c-10.8,13.9-27.3,21.7-43.7,26.8c1.1,3.1,3.1,5.8,5,8.4c-8.4,0.1-16.8,0.1-25.2,0c1.9-2.6,3.7-5.3,5.4-8.1
	c-12.4-4.5-25-9.4-35.2-18.1c-3.2-3-7.6-5.8-8.1-10.6c9.4-6.5,15.9-17.8,15.6-29.4C463.2,456.3,463.3,444.5,463.6,432.8L463.6,432.8
	z"/>
<path class="st9" d="M405,476.1c7.9-7,18.3-11.5,29-11.8c2.2-0.1,4.5-0.3,6.5,0.8c-0.1,7.2-1.3,14.8,1.8,21.5
	c1.3,3.9,4.6,6.8,5.5,10.8c0.5,4.8,5,7.5,8.1,10.6c10.1,8.8,22.8,13.6,35.2,18.1c-1.6,2.8-3.4,5.5-5.4,8.1
	c-6.8,0.2-13.7-0.2-20.5,0.3c-2.3,9.3-1.8,19.6,2.1,28.5c-0.6,4.3-3.5,7.5-6.6,10.2c-3-3.4-7.1-5.5-10.8-8.2
	c-17.8-12.5-35-27-45.8-46.2c-4.5-7.7-8-16.5-7.2-25.6C397.7,486.7,400.5,480.6,405,476.1z"/>
<path class="st9" d="M556.4,465.2c4.5-1.8,9.6-0.7,14.2,0.1c7.9,1.7,15.3,5.4,21.3,10.8c6.7,6.4,9.7,16.4,7.8,25.4
	c-1.6,8.1-5.7,15.4-10,22.3c-11.6,17.5-28,31.2-45.2,42.8c-3.4,2.4-7.7,4.2-9.1,8.4c-0.9-4.3-4.3-7.3-6.2-11.2
	c4-9.2,5.5-19.8,2.5-29.5c-6.8-0.3-13.7,0-20.6-0.2c-1.9-2.7-3.9-5.3-5-8.4c16.4-5.1,32.9-12.9,43.7-26.8c-0.2-0.8-0.5-1.6-0.7-2.5
	c3.1-4.8,6.3-9.7,7.3-15.4C557,475.8,556.7,470.4,556.4,465.2L556.4,465.2z"/>
<path class="st10" d="M401.1,478.2c1.2-0.9,2.5-1.6,3.9-2.1c-4.5,4.5-7.4,10.6-8,17c-0.8,9.1,2.7,17.9,7.2,25.6
	c10.8,19.2,28,33.8,45.8,46.2c3.7,2.6,7.8,4.7,10.8,8.2c4.2,11.2,9.1,22.1,12.5,33.5c2.2,6,3,12.6,6.3,18.2
	c0.2,9.2-1.6,18.3-2.4,27.5c-4.7,44.4-7.8,88.9-9.1,133.5c-0.6,2.2-1.2,4.3-1.6,6.5c-4.1-6.7-6.9-14.1-10.8-20.9
	c-7.2-14.8-15.7-28.8-24.1-42.9c-6.9-11-14-21.8-22-32c-6.8-6.9-12.5-14.9-20.1-20.9c-7.9-7-16.9-12.7-26.9-16.2
	c-3-1.1-6.9-2.5-7.2-6.3c0.7-2.8,2.6-5,4.5-7.2c7.9-8.4,16.7-16,24-25c5.3-6,12.5-10.2,17.2-16.8c1.5-2.3,2.1-6-0.2-7.9
	c-2.4-1.7-5.4-2.3-8.2-3c-13.2-2.8-26.2-6.1-39.2-9.7c-5-1.3-10-3.5-15.2-2.4c0,0.5-0.2,1.5-0.2,2c-3.2-15.2-9.6-30.5-21.7-40.8
	c0.4,0.1,1.3,0.3,1.7,0.5c11.9-10.1,24.5-19.2,36.8-28.8C370.2,502,385.7,490.2,401.1,478.2L401.1,478.2z"/>
<path class="st10" d="M591.9,476.1c1.4,0.5,2.8,1.1,4,2.1c22,17,44,33.9,66,50.9c6.7,5.3,13.8,10.1,19.6,16.4
	c2.8,2.9,4.4,6.7,5.8,10.5c-0.2,4.6-1.5,9.2-4.9,12.5c-7,7.2-17.3,9-26.5,11.5c-13.1,3.8-26.3,6.9-39.5,10.4
	c-6,1.5-12.4,1.6-18.2,3.9c-2.6,0.9-4.5,3.8-3.8,6.5c0.7,3.7,3.5,6.5,6.2,8.9c6.3,5.3,11.8,11.5,17.8,17.2c4.8,4.5,8.7,10,13.5,14.5
	c2.8,2.8,6,5.4,8.2,8.8c2,2.8-0.1,6.7-3,7.8c-4.6,2-9.3,3.7-13.8,5.9c-0.3-5.7,0.6-11.4-0.7-17c-0.6,10-0.3,20.1-0.7,30.2
	c-4.4,0.2-8.8,0.2-13.1,0.2c-1.2,0.2-2.6,0.2-3.5,1.1c-12.9,11.8-22.2,26.8-31.6,41.3c-9.2,14.8-17.3,30.2-25.5,45.5
	c-5.9,12.9-12.4,25.5-17.9,38.7l-0.6,0.7c0-12.8-1.2-25.6-1.1-38.4c-0.8-12.9-1.5-25.9-2-38.8c-1.5-13.8-1.6-27.7-3.6-41.4
	c-1.1-20.7-3.9-41.3-6.1-61.9c1.6-1.6,3-3.4,3.5-5.6c3.9-14.8,9.2-29.2,15.3-43.2c1.5-4.2,5.8-6,9.1-8.4
	c17.2-11.7,33.7-25.3,45.2-42.8c4.3-6.9,8.4-14.2,10-22.3C601.6,492.4,598.6,482.5,591.9,476.1 M533.6,646.7
	c-0.3,9.8-0.5,19.7,0.1,29.5c29.2,0.2,58.4,0.2,87.6,0.1c0.5-9.8,0.3-19.8,0-29.6C592.1,646.5,562.8,646.5,533.6,646.7L533.6,646.7z
	"/>
<path class="st11" d="M223,528.6c9.7,0.2,19.3-1.5,29-1.3c7.3-0.6,14.7-0.9,22-1c15.5-1.1,31,5.5,42.3,16
	c12.1,10.3,18.5,25.5,21.7,40.8c4.7,23.5,9.4,46.9,13.8,70.5c6.9,32.9,13.4,65.9,20.1,98.9c2.6,11.7,4.3,23.6,7.8,35.1
	c-10.9,1.4-21.8,2.5-32.7,3.1c-8.7,0.9-17.6,1-26,3.4c-4.3,1.2-8.3,4.5-9.3,9c-0.8,4,2.3,7.8,6,9c6.6,2.1,13.7,1.7,20.5,2.7
	c-5.5,2.4-11.9,1.3-17.2,4.2c-3.7,1.8-6.7,5.7-6.3,10c0.9,4.8,5.9,7,10.2,7.6c8,1.2,16.1,1.8,24.2,2.2c-7.2,0.8-14.6,1-21.6,2.9
	c-4,1-7.8,3.7-9,7.7c-0.6,2.6-0.6,5.7,1.5,7.7c2.5,2.6,6.3,3.2,9.7,3.8c7.4,1,14.9,1.7,22.4,1.7c-3,1.1-6.1,2-8.9,3.7
	c-5,3.2-5.7,11.7-0.5,15.1c4.8,3.3,11,2.8,16.5,3.7c13.3,2,26.7,1.7,40.1,1.6c2.5,14.1,5.2,28.1,8.2,42.1c3.6,12.7,5,26.1,3.5,39.3
	c-1.5,9.8-5.5,20.1-13.7,26.2c-3.1,2.5-6.8,4.2-10.6,5.3c0,0.2,0.1,0.5,0.1,0.7c-10.1,2.3-20.5,1.3-30.8,1.4
	c-23.4,0.1-46.8,0-70.2,0c-13.2-0.8-26.6-0.1-39.8-0.4c-26.7,0.1-53.3-0.2-80-0.1c-7.1,0-14.1-1.4-21.2-2.3
	c-14.9-3.1-29.5-10.7-38.6-23.2c-5.7-8.2-7.7-18.3-10.3-27.8c13.7-5.9,26.4-13.9,38.7-22.3c6.8-4.8,13.6-9.7,19.9-15.1
	c2.8-2.5,5.9-5.5,6-9.6c0.3-5.1-4.9-8.8-9.6-8.7c-7-0.3-12.6,4.5-18.9,6.6c7.1-5.9,15.3-10.4,21.7-17.1c2.6-2.6,3.9-6.6,2.6-10.2
	c-2.5-4.6-8.6-6.1-13.3-4.6c-6.3,1.8-12,5.3-17.9,7.9c6.1-5.6,13.6-9.5,19.1-15.7c2.6-2.6,3.4-6.9,1.8-10.2c-2.8-4.6-9-5.3-13.8-3.8
	c-6.6,1.9-12.5,5.5-18.6,8.6c-9.2,5.4-18.8,10-28.5,14.2c14.9-12.9,29.3-26.6,41.8-41.8c2.5-3.2,4.7-7.3,3.4-11.4
	c-2.2-4.8-8.4-6.2-13-4.4c-6.2,2.3-11.3,6.7-16.6,10.6c-11,8.7-21.9,17.4-33.2,25.8c-5.2-18.3-10.2-36.7-15.7-55
	c-1.8-8.8-5-17.1-7-25.8C36.3,735.9,28,705.9,19.7,676c-3.5-9.9-5.2-20.3-8.5-30.3c-3.1-12.1-7.8-23.7-9.6-36.1
	c-1.8-9.4-1.2-19-1.1-28.6c1.3-12.6,7.1-25.3,17.6-32.9c5.3-3.8,11.5-6.3,17.8-8c18.6-2.6,37.5-2.3,56.2-4
	c7.7-0.9,15.6,0.3,23.2-1.5c10.6-1,21.2-0.9,31.7-1.9c5.7,0.1,11.3-0.4,16.9-1.1c11.4,0,22.7-0.9,34-1.9
	C206.3,529.7,214.6,529.5,223,528.6L223,528.6z"/>
<path class="st12" d="M467.5,562.9c3.8,9.9,11.9,17.1,19.5,24.1c-2.8,10.2-4.1,20.7-5.6,31.1c-0.2,2.3-1,4.5-1.8,6.7
	c-3.3-5.6-4.1-12.2-6.3-18.2c-3.5-11.4-8.3-22.3-12.5-33.5C464.1,570.4,466.9,567.1,467.5,562.9L467.5,562.9z"/>
<path class="st12" d="M515.6,581.7c5.6-5,10.5-10.9,13.5-17.8c2,3.8,5.3,6.8,6.2,11.2c-6,14-11.3,28.4-15.3,43.2
	c-0.5,2.2-1.9,4.1-3.5,5.6c-1.9-9.6-2.6-19.4-4.8-29c-0.5-2.6-1.3-5.2-1.4-7.8C511.7,584.9,513.9,583.4,515.6,581.7L515.6,581.7z"/>
<path class="st10" d="M338.2,581.1c5.2-1.1,10.2,1.1,15.2,2.4c13,3.6,26,7,39.2,9.7c2.8,0.7,5.8,1.3,8.2,3c2.3,1.9,1.8,5.6,0.2,7.9
	c-4.7,6.6-11.8,10.9-17.2,16.8c-7.4,8.9-16.1,16.5-24,25c-1.8,2.1-3.8,4.4-4.5,7.2c0.3,3.7,4.2,5.2,7.2,6.3c10,3.5,19,9.2,26.9,16.2
	c7.6,6,13.3,14,20.1,20.9c8,10.2,15.1,21.1,22,32c8.4,14.1,16.9,28.2,24.1,42.9c3.9,6.8,6.7,14.2,10.8,20.9
	c0.4,8.1,0.1,16.2,0.2,24.3c-9.3,0.3-18.4-2.2-27.6-2.9c-8.8-0.6-17.4-2.7-26.1-4c-1.6-0.4-3.3,0-4.7,0.9c-0.3-0.2-1-0.5-1.4-0.7
	c3.4-3.5,6.6-7.8,6.4-13c0.2-5-4-8.9-8.7-9.7c-8.3-1.6-16.7,0.2-25.1,0.2c-3.5-11.5-5.2-23.4-7.8-35.1c-6.7-33-13.2-66-20.1-98.9
	c-4.5-23.5-9.1-47-13.8-70.5C338.1,582.6,338.2,581.6,338.2,581.1z"/>
<path class="st13" d="M533.6,646.7c29.2-0.2,58.5-0.1,87.7,0c0.2,9.9,0.4,19.8,0,29.6c-29.2,0.1-58.4,0.2-87.6-0.1
	C533.1,666.4,533.3,656.5,533.6,646.7L533.6,646.7z"/>
<path class="st10" d="M605.1,678.2c1-0.9,2.3-0.9,3.5-1.1c0.5,1.6,1,3.2,1.7,4.7c8,16.3,14.1,33.7,17.1,51.6
	c0.9,8.3,2.2,16.7,1.1,25c-1.2,10-3.5,20.3-9.5,28.6c-3.2,4.7-6.4,9.5-11,13c-16,13.1-36.8,18.7-57,20.1c-6.9,0.3-14.1,2.3-20.7-0.8
	c-0.1-5.2,0-10.5-0.2-15.7c5.4-13.1,12-25.8,17.9-38.7c8.2-15.4,16.3-30.8,25.5-45.5C582.9,704.9,592.2,690,605.1,678.2L605.1,678.2
	z"/>
<path class="st1" d="M347,790.7c10.9-0.6,21.8-1.8,32.7-3.1c8.3,0,16.8-1.9,25.1-0.2c4.6,0.8,8.9,4.8,8.7,9.7c0.3,5.2-3,9.5-6.4,13
	c0.3,0.2,1,0.5,1.4,0.7c3.7,1.9,8.2,4.5,8.1,9.3c0.9,5.7-3,10.3-6.7,14.1c3.3,1.8,7.4,3.1,9.3,6.7c1.1,3,0.9,6.4,0,9.3
	c-1.6,3.8-5.1,6.2-8,9c3.6,0.8,8,1,10.2,4.5c4.1,6.4,1,15-4.6,19.3c-5.3,2.8-11.4,3.4-17.3,3.6c-13.4,0.1-26.8,0.4-40.1-1.6
	c-5.5-0.9-11.7-0.5-16.5-3.7c-5.1-3.4-4.5-11.9,0.5-15.1c2.8-1.7,5.9-2.6,8.9-3.7c-7.5,0.1-15-0.6-22.4-1.7
	c-3.4-0.5-7.2-1.2-9.7-3.8c-2-2-2.1-5.1-1.5-7.7c1.2-4,5-6.7,9-7.7c7.1-1.9,14.4-2,21.6-2.9c-8.1-0.4-16.2-1-24.2-2.2
	c-4.4-0.6-9.4-2.8-10.2-7.6c-0.4-4.3,2.6-8.2,6.3-10c5.3-2.9,11.7-1.8,17.2-4.2c-6.8-1-13.9-0.6-20.5-2.7c-3.7-1.1-6.9-4.9-6-9
	c1-4.5,5-7.8,9.3-9C329.4,791.7,338.3,791.5,347,790.7L347,790.7z"/>
<path class="st1" d="M117.3,810.1c4.6-1.8,10.8-0.4,13,4.4c1.3,4.1-0.9,8.2-3.4,11.4c-12.5,15.3-26.9,29-41.8,41.8
	c9.8-4.2,19.4-8.8,28.5-14.2c6.1-3.1,12-6.7,18.6-8.6c4.8-1.5,10.9-0.8,13.8,3.8c1.6,3.3,0.8,7.6-1.8,10.2
	c-5.6,6.2-13.1,10.1-19.1,15.7c6-2.6,11.6-6,17.9-7.9c4.8-1.5,10.8,0,13.3,4.6c1.3,3.5,0.1,7.6-2.6,10.2
	c-6.4,6.7-14.6,11.2-21.7,17.1c6.4-2,11.9-6.9,18.9-6.6c4.7-0.1,9.9,3.7,9.6,8.7c0,4-3.2,7-6,9.6c-6.4,5.4-13.1,10.3-19.9,15.1
	c-12.3,8.4-25,16.4-38.7,22.3c-5.2,1.1-11.5,1.5-16-2c-3.8-2.8-6.8-8-4.9-12.8c0.8-3.2,3.9-4.8,5.6-7.4c-6.9,0.7-15.3-3.2-16.3-10.8
	c-0.8-4.7,2.6-8.2,5.5-11.4c-6.1,0.7-12.5-2.7-15.1-8.3c-0.8-3-0.8-6.7,1.3-9.2c1.2-1.6,2.5-3,3.8-4.5c-4.9-0.9-10-2.9-12.3-7.6
	c-0.6-3.6-0.8-7.8,1.7-10.8c5-6.6,12.1-11.3,18.3-16.6c11.3-8.3,22.2-17.1,33.2-25.8C106,816.9,111.1,812.4,117.3,810.1L117.3,810.1
	z"/>
<path class="st10" d="M619.1,912.1c27.7-6.1,54.7-17.1,77.4-34.3c-0.7,0.5,0.1,5.5,0.2,6.4c0.2,2,0.6,4,0.8,6.1
	c1,8.8,1.5,17.7,2.3,26.5c1.7,18.1,3.5,36.1,4.9,54.2c1.5,20.6,3.7,41.1,5.6,61.7c1.9,20.3,3.7,40.7,5.6,61
	c0.8,8.3,1.5,16.7,2.2,25.1c1,11.7,2.1,23.5,3.4,35.2c1.1,10,2.1,19.9,2.8,29.9c0.4,4.7,0.5,9.5,0.9,14.2c0.4,5,1.2,9.9,1.4,14.9
	c1.1,4.9,0.6,10,1.4,15c1.2,11.9,2.2,23.9,1.7,36c-0.2,7.1-2.6,14.2-6.8,19.9c-6.2,8-15.3,13.1-24.7,16.6c-13.7,5.2-28.3,6.8-42.6,9
	c-14.1,2.5-28.4,2.4-42.6,2.1c-7.1-0.3-14-2.2-20.7-4.5c-16.3-5-28.9-18.6-35.4-34c-3.4-7.9-6.1-16.1-7.8-24.5
	c-3.8-13.7-4.5-27.9-6.3-41.9c-2-22.3-5.9-44.3-8.6-66.5c-1.1-10.9-3.2-21.8-3.9-32.8c-2-13.7-3.2-27.5-4.7-41.3
	c-0.3-9.7-1.7-19.3-2.5-29c-2.8-29.4-5-58.8-6.7-88.3c3.5-12.1,6.2-24.4,8-36.9c0.2,1.2,0.5,2.3,0.7,3.5c11-0.9,21.9,2,32.9,1.7
	c11-0.3,22.1,0.5,33.1-0.7C600.6,915.9,609.8,913.7,619.1,912.1 M621.3,988.2c-10.8,2.7-17.9,14.5-16,25.3
	c1.3,6.5,3.6,12.8,6.2,18.9c4.3,9.7,8,19.6,13,29c6.1,12.9,13.3,25.5,23.1,35.9c5.7,5,12.5,9.6,20.3,10c6.2,0.4,13.3-0.7,17.4-6
	c5-5.1,4.8-13,2.8-19.3c-2.7-7.8-7-14.9-11.1-22c-4.1-6.7-7-14-11.1-20.8c-5.2-10.2-10.3-20.4-15.4-30.6c-2.6-6.3-5.3-13-11.1-17.1
	C634.4,987.5,627.4,986.8,621.3,988.2L621.3,988.2z"/>
<path class="st10" d="M399.3,886.7c5.9-0.2,12-0.8,17.3-3.6c0,0.8-0.1,1.7-0.1,2.5c10.3,3.2,20.3,7.2,30.7,10.2
	c7.9,2.4,16.2,4,23.5,8.1c0.1-2,1,6.1,1.1,4.1c1.5,9.6,1.4,9.3,3.6,18.7c1.6,6.7,3.2,13.4,4.9,20.1c-2.6,32.1-5.2,64.2-8.7,96.2
	c-0.6,7-1.7,13.9-2.1,21c-2.2,22.1-5.3,44-8,66c-5,37.5-11.2,74.8-16.6,112.3c-2.7,14.9-5.6,30.5-14.4,43.2
	c-6.3,9.5-15.7,16.8-26.5,20.6c-4.6,1.6-9.3,2.9-14,4.1c-15.3,1.5-30.8,2.1-46.1,0c-5.5-0.4-10.9-1.9-16.4-2.3
	c-11.7-1.6-23.3-4.4-34.4-8.4c-8.9-3.5-17.7-8.5-23.4-16.4c-4.5-6-6.8-13.6-6.5-21.1c-0.3-9,0.9-18,1.7-26.9
	c1.8-20.3,3.7-40.6,5.7-60.8c1-9.9,1.3-20.1,2.2-30.1c0.5-4.8,1.3-9.5,1.7-14.3c0.4-5.2,0.9-10.3,1.3-15.5
	c1.8-20.3,3.8-40.6,5.6-60.9c0.8-9.2,1.9-18.4,2.1-27.6c0.8-4.2,0.9-8.4,1.5-12.6c0.4-3.8,0.9-7.7,1.4-11.5
	c29.8,0.1,59.6,0,89.4,0.1c1.5,0,3.1,0.2,4.6,0.4c-1.6,1.2-3.7,1.1-5.6,1.2c-10.1,0-20.1-0.2-30.2,0c-0.9,4.4-2.7,8.6-5,12.5
	c-4.5,9.4-9.9,18.3-14.3,27.8c-5.3,11.1-12.2,21.4-17.6,32.5c-2.1,4.6-4,9.6-3.9,14.8c0.2,5.8,3.6,11.6,8.9,14.1
	c7.7,3.6,17.3,3,24.5-1.6c6.9-4.5,13.5-9.9,18.1-16.9c9.5-13.1,15.8-28,22.3-42.7c3.3-7.8,7.2-15.3,9.6-23.4
	c1.9-6.5,2.8-14-0.6-20.2c0-0.2-0.1-0.5-0.1-0.7c3.8-1.1,7.5-2.8,10.6-5.3c8.2-6.1,12.2-16.4,13.7-26.2c1.5-13.2,0.1-26.6-3.5-39.3
	C404.5,914.8,401.7,900.8,399.3,886.7L399.3,886.7z"/>
<path class="st12" d="M480.3,946.8c3,7.5,5.4,15.7,11.1,21.8c3.1,3.5,9,4.9,12.7,1.6c6.3-5.6,8.9-14,12.2-21.5
	c1.7,29.5,3.9,58.9,6.7,88.3c0.8,9.7,2.2,19.3,2.5,29c-15.5,0.9-31.1,0.8-46.6-0.4c-3.2-0.2-6.3-0.9-9.4-1.6c0.3-7,1.5-14,2.1-21
	C475.1,1011,477.7,978.9,480.3,946.8L480.3,946.8z"/>
<path class="st6" d="M621.3,988.2c6.1-1.4,13.1-0.7,18.1,3.3c5.7,4.1,8.5,10.8,11.1,17.1c5,10.3,10.2,20.5,15.4,30.6
	c4.1,6.7,7,14,11.1,20.8c4.1,7.1,8.4,14.2,11.1,22c2.1,6.3,2.2,14.2-2.8,19.3c-4,5.2-11.2,6.3-17.4,6c-7.8-0.4-14.6-5-20.3-10
	c-9.8-10.4-17-23.1-23.1-35.9c-5-9.4-8.7-19.3-13-29c-2.6-6.1-4.9-12.4-6.2-18.9C603.4,1002.7,610.5,990.9,621.3,988.2L621.3,988.2z
	"/>
<path class="st6" d="M285.8,1001.7c23.4,0,46.8,0.1,70.2,0c10.3-0.1,20.7,0.8,30.8-1.4c3.5,6.2,2.5,13.6,0.6,20.1
	c-2.4,8.1-6.3,15.7-9.6,23.4c-6.4,14.7-12.8,29.6-22.3,42.7c-4.6,7-11.2,12.4-18.1,16.9c-7.2,4.6-16.8,5.2-24.5,1.6
	c-5.3-2.5-8.7-8.3-8.9-14.1c-0.1-5.2,1.7-10.2,3.9-14.8c5.4-11.1,12.3-21.3,17.6-32.5c4.4-9.4,9.8-18.4,14.3-27.8
	c2.2-3.9,4.1-8.1,5-12.5c10.1-0.1,20.1,0,30.2,0c1.9-0.1,4,0,5.6-1.2c-1.5-0.2-3.1-0.3-4.6-0.4c-29.8,0-59.6,0-89.4-0.1
	L285.8,1001.7L285.8,1001.7z"/>
<path class="st14" d="M461.6,1130c2.7-22,5.8-43.9,8-66c3.1,0.8,6.2,1.4,9.4,1.6c15.5,1.2,31.1,1.3,46.6,0.4
	c1.5,13.8,2.6,27.6,4.7,41.3c0.7,11,2.8,21.8,3.9,32.8c2.6,22.2,6.6,44.3,8.6,66.5c1.8,14,2.5,28.2,6.3,41.9
	c1.7,8.4,4.4,16.6,7.8,24.5c6.5,15.4,19.1,29,35.4,34c6.7,2.3,13.6,4.2,20.7,4.5c14.2,0.4,28.6,0.4,42.6-2.1c-0.1,0,0,9.2-0.1,10.1
	c-0.1,3.4-0.3,6.8-0.5,10.2c-0.4,6.8-1.1,13.6-1.6,20.5c-0.3,3.4-0.5,6.8-0.7,10.2c-0.2,3.2,0,6.4-0.3,9.6
	c-0.9,11.3-2,22.6-2.3,33.9c-1.2,11.3-0.2,22.7-1.5,34c-0.6,18.7,0,37.4-1.1,56c0,28-0.6,56,0.5,84c0.1,14.3,0.1,28.7,0.3,43.1
	c-0.1,8.6,1.1,17.2,0.9,25.9c0.3,7.4-0.1,14.7,0.7,22.1c0.5,8.1,0.1,16.2,0.8,24.3c1,7.9,0.1,15.9,1.3,23.8
	c0.8,15.6,1.8,31.2,3.6,46.7c3.2,19.6,6.3,39.4,12.3,58.4c1.8,5.7,3.5,11.3,5.2,17c-0.9,0.8-1.5,1.9-2.5,2.4
	c-10.6,4.6-22.1,6.4-33.5,7.6c-10.7-0.5-21.4,0.5-32-1.3c-8.8-1.2-17.7-3.1-25.2-7.9c-5.3-3.4-9.5-9.3-9.1-15.9
	c0.6-24.6-1.3-49.2-2.3-73.8c-0.7-13.8-1.5-27.5-2.3-41.2c-0.6-18.4-2.7-36.7-3.2-55.1c-1.3-11.4-0.6-22.8-1.7-34.2
	c-1.9-38.6-4-77.2-4.3-115.8c-1.3-11.3-0.3-22.7-1.7-34c-0.5-23.4-2.9-46.7-4.7-69.9c-3.9-47.6-8.9-95.1-14.3-142.5
	c-1.6-11.4-2.5-23-4.5-34.4c-2-12.4-4.3-25.2-11.1-36c-3.4-5.6-9.6-9.2-16-9.9c-7.7-0.9-15.3,1.3-22.9,2.6c-3.7,0.6-7.3,1.4-11,2.4
	c0.2,1.9,0.5,3.8,0.6,5.7c0.1,2.1-1.2,3.8-1.7,5.8c-2,6.2-2.5,12.8-2.5,19.3c-1.4,16.6-0.6,33.3-0.8,50c-0.1,17.7,1,35.3,0.7,53
	c0.3,10-0.8,20-0.6,30c0.2,13.3-0.2,26.7,0,40c0.3,13.8,0.6,27.7,1,41.5c0,27.2,1.8,54.6,3,81.7c1.1,24.4,2.1,48.9,3.2,73.3
	c1.3,27.7,2.6,55.4,3.9,83.2c0.5,9.8,1.4,19.7,1.4,29.5c1.3,27.7,2.6,55.3,4.1,83c0,11.3,1.2,22.8,1.8,34.1
	c0.6,10.9,2.1,21.8,3.4,32.7c0.2,2.1,0.2,4.1,0.4,6.2l-1,0c-7,0.4-13.9-1-20.9-0.9c-9.3-0.1-18.5,0.4-27.8-0.4
	c-11.7-2.8-23.8-5.1-34.6-10.6c-6.4-3.2-12.6-8-15-15c-1.8-5.1,0.4-10.3,1.3-15.3c1.7-8.9,1.2-18,1.4-27c-0.1-17,0.4-34-1-51
	c0.2-18.4-2-36.7-2.2-55.1c-1.2-11-0.7-22-1.4-33c-0.9-12-0.9-24-1.9-36c-0.9-10.7-0.7-21.5-1.5-32.2c-0.7-11.6-0.3-23.2-1.1-34.8
	c-0.3-13.7-0.1-27.3-1.3-41c-4.7-58.3-13.7-116.1-22.1-173.9c-0.6-4.4-0.9-8.9-2.7-13.1c10.9,0.6,22.1,0.8,32.8-1.9
	c4.7-1.1,9.4-2.5,14-4.1c10.7-3.8,20.2-11.1,26.5-20.6c8.8-12.7,11.7-28.3,14.4-43.2C450.4,1204.8,456.5,1167.5,461.6,1130
	L461.6,1130z"/>
<path class="st15" d="M481.9,1179.9c7.5-1.3,15.1-3.5,22.9-2.6c6.4,0.8,12.6,4.3,16,9.9c6.8,10.8,9.1,23.6,11.1,36
	c2,11.4,2.9,22.9,4.5,34.4c5.4,47.4,10.4,94.9,14.3,142.5c1.8,23.3,4.2,46.6,4.7,69.9c1.4,11.3,0.4,22.7,1.7,34
	c0.2,38.6,2.4,77.2,4.3,115.8c1,11.4,0.4,22.8,1.7,34.2c0.5,18.4,2.6,36.7,3.2,55.1c0.8,13.7,1.7,27.5,2.3,41.2
	c1,24.6,2.9,49.2,2.3,73.8c-0.3,6.5,3.8,12.4,9.1,15.9c7.5,4.8,16.5,6.7,25.2,7.9c10.6,1.8,21.3,0.8,32,1.3
	c-9,1.4-18.2,0.6-27.3,0.9c-19.8-0.1-39.5,0.9-59.2,1.6c-1.1-0.1-2.1-0.2-3.2-0.4c-0.5-0.1,0.6-36.4,0.6-39.9
	c-0.1-13.8-0.4-27.6-1-41.4c-0.3-8.1-1.4-16.3-1.4-24.4c-0.5-2.9-0.1-5.8-0.2-8.8c-0.1-3.5-0.3-6.9-0.4-10.4
	c-0.3-6.9-0.6-13.8-0.8-20.8c-0.6-13.8-1.1-27.7-1.7-41.5c-0.7-16-2-32.1-2-48.2c0.1-6.6-0.9-13.2-1-19.7
	c-0.1-6.9-0.2-13.8-0.5-20.7c-0.7-20.1-2.6-40.2-2.6-60.3c0.3-6.6-0.5-13.3-0.8-19.8c-0.3-6.9-0.6-13.8-0.9-20.7
	c-0.7-13.8-1.4-27.6-2.3-41.4c-1.3-20.8-2-41.9-4.6-62.6c-1.6-10.6-2-21.3-3.2-31.9c-1-5.7-1-11.4-1.9-17.1
	c-0.9-4.9-0.2-9.9-1.3-14.7c-0.7-6-0.7-12-1.7-17.9c-0.9-5-0.2-10.2-1.1-15.2c-1.2-5.8-0.3-11.8-1.4-17.7
	c-2.1-19.5-2.3-39.3-7.5-58.4c-0.8-3.2-2-6.4-4.1-9c-1.5-2.4-4.7-1.3-7.1-1.6c-9.1,0.4-18.3-0.7-27.4,0.7c-0.1-1.9-0.4-3.8-0.6-5.7
	C474.6,1181.4,478.2,1180.5,481.9,1179.9L481.9,1179.9z"/>
<path class="st16" d="M327.6,1307.8c5.5,0.4,10.9,1.8,16.4,2.3c15.3,2.1,30.8,1.6,46.1,0c-10.7,2.7-21.9,2.5-32.8,1.9
	c-7.9-0.3-15.8-1-23.6-2.2c-2.3-0.4-4.6-1-6.8-1.6L327.6,1307.8L327.6,1307.8z"/>
<path class="st15" d="M333.7,1309.7c7.8,1.2,15.7,1.9,23.6,2.2c1.8,4.1,2,8.7,2.7,13.1c8.5,57.8,17.4,115.7,22.1,173.9
	c1.2,13.6,1,27.3,1.3,41c0.8,11.6,0.4,23.2,1.1,34.8c0.8,10.7,0.6,21.5,1.5,32.2c0.9,12,0.9,24,1.9,36c0.7,11,0.1,22.1,1.4,33
	c0.3,18.4,2.4,36.7,2.2,55.1c1.4,16.9,0.9,34,1,51c-0.1,9,0.4,18.1-1.4,27c-1,5-3.1,10.2-1.3,15.3c2.4,7,8.6,11.8,15,15
	c10.8,5.5,22.9,7.7,34.6,10.6c-24.5,0.5-49.9,1.2-73.1-7.9c-2.1-0.8-4.5-2.4-3.5-5c3.5-13.1,5.9-26.4,7.6-39.8
	c2.7-11.9,2.1-24.2,3.3-36.2c0.1-14,0.5-28-0.7-42c-0.4-6.3-0.2-12.7-0.2-19c0-6.7-1.3-13.3-1.1-20c0.3-10-1.4-20-1.7-30
	c-0.1-7.1-1.3-14-1.3-21.1c0-5.7-1-11.3-1-17c-0.1-4.1,0-8.2-0.6-12.2c-1.7-11.3-1.5-22.8-3.1-34.1c-0.6-5.2-1.5-10.4-1.4-15.7
	c0.1-4.7-1.3-9.3-1.2-14c0.1-5.4-1.3-10.6-1.5-15.9c-0.2-5.7-1.7-11.3-1.5-17.1c-1.1-7.2-0.9-14.5-2.4-21.6
	c-0.8-9.8-1.7-19.6-3.1-29.3c-0.5-9-1.8-18-3-27c-1.7-9.4-1.9-19.1-3.9-28.5c-2.7-23-6.6-45.8-10.2-68.6
	C335.2,1321.8,333.6,1315.8,333.7,1309.7L333.7,1309.7z"/>
<path class="st17" d="M364,1565.7c1.6,11.3,1.4,22.8,3.1,34.1c0.5,4,0.5,8.1,0.6,12.2c0.1,5.7,1.1,11.3,1,17c0,7,1.1,14,1.3,21.1
	c0.3,10,2,19.9,1.7,30c-0.2,6.7,1.1,13.3,1.1,20c0,6.3-0.2,12.7,0.2,19c1.2,14,0.8,28,0.7,42c-1.2,12.1-0.6,24.4-3.3,36.2
	c0.1-9.8,2.4-19.5,2-29.3c0-9.3,1.6-18.7,0.6-28c-1.3-12.3-0.1-24.7-0.8-37c-1.9-11.8-0.2-24-2.3-35.8c-1.2-7.4,0.1-14.8-1-22.2
	c-0.5-3.3-0.7-6.7-0.7-10c0.2-10.1-2.4-19.9-1.9-30c-1.5-8.7-0.4-17.5-2-26.2C363.6,1574.5,363.4,1570.1,364,1565.7L364,1565.7z"/>
<path class="st0" d="M366.1,1842c23.2,9.1,48.6,8.4,73.1,7.9c9.2,0.8,18.5,0.3,27.8,0.4c7-0.1,13.9,1.3,20.9,0.9
	c-0.2,0.9-0.4,1.8-0.5,2.8c-15.4,8.1-32.1,12.8-48.8,17.2c-31,7.6-62.6,12.3-94.5,14.4c-9-0.3-18,1.3-27,1.1
	c-6.7,0-13.4,0.2-20.1-0.6c-8.5-1-17.3,0.6-25.4-2.7c1.9-2.2,4.8-2.7,7.4-3.6c9.8-3.4,19.3-7.7,29.1-11.1c9-3.8,18-7.6,27-11.5
	C345.8,1853,355.9,1847.3,366.1,1842L366.1,1842z"/>
<path class="st0" d="M637.3,1849.1c11.4-1.2,22.9-2.9,33.5-7.6c10,4.9,19.8,10.3,30.1,14.6c9.2,4.4,18.8,7.7,28,11.9
	c8.6,3.5,17.4,6.6,26.1,10.1c4.2,1.8,8.7,2.6,12.5,5.1c-3.6,1.5-7.5,2.3-11.5,2.3c-9.4-0.1-18.7,1.5-28,1.1
	c-8.3,0.2-16.7-0.2-25-0.9c-10.9,0.2-21.7-1.2-32.6-2.4c-23-2.2-45.8-6.4-68.2-11.8c-11.1-3.6-22.4-6.6-33.3-10.4
	c-6.1-1.9-11.8-5.1-18.1-6.4v-3.1c19.7-0.7,39.5-1.7,59.2-1.6C619.1,1849.7,628.2,1850.6,637.3,1849.1L637.3,1849.1z"/>
<path class="st18" d="M438.5,1871.2c16.7-4.4,33.5-9.2,48.8-17.2c0.5,7-5.8,11.8-10.9,15.4c-16.2,10.2-35.1,14.9-53.5,19.5
	c-20.8,4.6-41.8,8.4-63,10.5c-6.7,0.2-13.3,1.8-20,1.9c-18.1,0.6-36.6,1.8-54.3-2.8c-5.5-1.6-11.2-3.7-15.1-8.1
	c-1.8-1.6-1-4.2-1.2-6.2c0.7-0.4,1.4-0.7,2.1-0.8c8.1,3.3,16.9,1.7,25.4,2.7c6.7,0.8,13.4,0.5,20.1,0.6c9,0.3,18-1.4,27-1.1
	C375.8,1883.5,407.5,1878.8,438.5,1871.2L438.5,1871.2z"/>
<path class="st18" d="M550.8,1854.7c6.3,1.2,12,4.4,18.1,6.4c11,3.9,22.3,6.8,33.3,10.4c22.5,5.4,45.2,9.6,68.2,11.8
	c10.8,1.2,21.7,2.6,32.6,2.4c8.3,0.8,16.6,1.2,25,0.9c9.4,0.4,18.7-1.2,28-1.1c3.9,0,7.8-0.8,11.5-2.3c2.4,1,3.1,3.8,1.8,6.1
	c-3.5,5.3-9.8,7.3-15.6,9.2c-13,3.3-26.5,3.6-39.8,3.4c-10.2-0.3-20.4-0.6-30.5-2.1c-10.7-0.6-21.3-2.2-31.8-4.1
	c-14-1.7-27.7-4.7-41.3-8.1c-9.1-1.8-17.6-5.3-26.5-7.8c-8.6-3.2-17.2-6.7-24.5-12.3C554.9,1864.6,551.6,1860,550.8,1854.7
	L550.8,1854.7z"/>
<path class="st10" d="M500.2,910.7c23.3,4.3,30.7,4.6,45.1,6.4c15.5,1.5,34.8,0.5,45.8-0.7c9.4-0.5,18.7-2.6,28-4.2
	c27.7-6.1,54.7-17.1,77.4-34.3c33.4-24,56-62.1,62.2-102.7c2.7-17.5,3.8-35.4,1.8-53c-0.1-8-2.2-15.8-2.1-23.8
	c-0.3,0.5-0.5,1-0.8,1.5c-0.6-9.3-3.3-18.3-5.3-27.4c-4.7-17.5-9.8-34.9-17.5-51.3c-8.3-18-19.5-34.6-32.4-49.6
	c-4.9-5.4-9.5-11-15.1-15.6c-0.2,4.6-1.5,9.2-4.9,12.5c-7,7.2-17.3,9-26.5,11.4c-13.1,3.8-26.3,6.9-39.5,10.4
	c-6,1.5-12.4,1.6-18.2,3.9c-2.6,0.9-4.4,3.8-3.8,6.5c0.7,3.7,3.4,6.5,6.2,8.9c6.3,5.3,11.8,11.5,17.8,17.2c4.8,4.5,8.6,10,13.5,14.5
	c2.8,2.8,6,5.4,8.2,8.8c2,2.8-0.1,6.7-3,7.8c-4.6,2-9.3,3.7-13.8,5.9c-0.3-5.7,0.6-11.4-0.7-17c-0.6,10-0.3,20.1-0.7,30.2
	c-4.4,0.2-8.8,0.2-13.1,0.2c0.5,1.6,1.1,3.2,1.7,4.7c8,16.3,14.1,33.7,17.1,51.6c0.9,8.3,2.2,16.7,1.1,25c-1.2,10-3.5,20.3-9.5,28.6
	c-3.2,4.7-6.4,9.5-11,13c-16,13.1-36.8,18.7-57.1,20.1c-14.7,2.1-33.7,0.4-58.9-1.5c-25.2-1.9-52.9-4.9-52.9-4.9
	c-8.8-0.6-17.4-2.7-26.1-4c-1.6-0.4-3.3,0-4.7,0.9c3.7,1.9,8.2,4.5,8.1,9.3c0.9,5.7-3,10.3-6.7,14.1c3.3,1.8,7.4,3.1,9.3,6.7
	c1.1,3,0.9,6.4,0,9.3c-1.6,3.8-5.1,6.3-8,9c3.6,0.8,8.1,1,10.2,4.5c4.1,6.4,1,15-4.7,19.3c0,0.8-0.1,1.7-0.1,2.5
	c10.3,3.2,35.5,13.6,40.7,15.1S476.9,906.3,500.2,910.7L500.2,910.7z"/>
</svg>
